<?xml version="1.0" encoding="utf-8"?><!-- Uploaded to: SVG Repo, www.svgrepo.com, Generator: SVG Repo Mixer Tools -->
<svg width="800px" height="800px" viewBox="0 -0.5 25 25" fill="none" xmlns="http://www.w3.org/2000/svg">
<path fill-rule="evenodd" clip-rule="evenodd" d="M5.5 12V6H8.5C10.1569 6 11.5 7.34315 11.5 9C11.5 10.6569 10.1569 12 8.5 12C10.1569 12 11.5 13.3431 11.5 15C11.5 16.6569 10.1569 18 8.5 18H5.5V12Z" stroke="#000000" stroke-width="1.5" stroke-linecap="round" stroke-linejoin="round"/>
<path fill-rule="evenodd" clip-rule="evenodd" d="M19.5 15C19.5 13.3431 18.1569 12 16.5 12C14.8431 12 13.5 13.3431 13.5 15H19.5Z" stroke="#000000" stroke-width="1.5" stroke-linecap="round" stroke-linejoin="round"/>
<path d="M5.5 11.25C5.08579 11.25 4.75 11.5858 4.75 12C4.75 12.4142 5.08579 12.75 5.5 12.75V11.25ZM8.5 12.75C8.91421 12.75 9.25 12.4142 9.25 12C9.25 11.5858 8.91421 11.25 8.5 11.25V12.75ZM14.25 15C14.25 14.5858 13.9142 14.25 13.5 14.25C13.0858 14.25 12.75 14.5858 12.75 15L14.25 15ZM15.4295 17.8024L15.1619 18.5031L15.4295 17.8024ZM19.295 17.5C19.5712 17.1913 19.5447 16.7172 19.236 16.441C18.9273 16.1648 18.4532 16.1913 18.177 16.5L19.295 17.5ZM18.5 10.75C18.9142 10.75 19.25 10.4142 19.25 10C19.25 9.58579 18.9142 9.25 18.5 9.25V10.75ZM14.5 9.25C14.0858 9.25 13.75 9.58579 13.75 10C13.75 10.4142 14.0858 10.75 14.5 10.75V9.25ZM5.5 12.75H8.5V11.25H5.5V12.75ZM12.75 15C12.75 16.5548 13.7095 17.9483 15.1619 18.5031L15.6971 17.1018C14.8257 16.7689 14.25 15.9328 14.25 15L12.75 15ZM15.1619 18.5031C16.6143 19.0578 18.2584 18.6588 19.295 17.5L18.177 16.5C17.5551 17.1953 16.5686 17.4347 15.6971 17.1018L15.1619 18.5031ZM18.5 9.25H14.5V10.75H18.5V9.25Z" fill="#000000"/>
</svg>